# xmcd CD database file
#
# Track frame offsets:
#	150
#	24592
#	42398
#	61631
#	80935
#	105622
#	127571
#	146130
#	160824
#	187272
#	210681
#
# Disc length: 3082 seconds
#
# Revision: 1
# Processed by: cddbd v1.5.2PL0 Copyright (c) Steve Scherf et al.
# Submitted via: CDex 1.51
#
DISCID=980c080b
DTITLE=Some Voices - Flyin' High
DYEAR=2006
DGENRE=Jazz
TTITLE0=Sea Of Time
TTITLE1=Flyin' High
TTITLE2=Fish
TTITLE3=Cosmic Flight
TTITLE4=Almighty
TTITLE5=Grip Of Love
TTITLE6=Carpe Diem
TTITLE7=Sing Gaga
TTITLE8=Soul Cries Out
TTITLE9=Hold Your Head High
TTITLE10=Blessings
EXTD=YEAR: 2006
EXTT0=
EXTT1=
EXTT2=
EXTT3=
EXTT4=
EXTT5=
EXTT6=
EXTT7=
EXTT8=
EXTT9=
EXTT10=
PLAYORDER=
